<svg width="44" height="44" viewBox="0 0 44 44" fill="none" xmlns="http://www.w3.org/2000/svg">
<rect width="44" height="44" rx="12" fill="#6B7280" fill-opacity="0.08"/>
<mask id="mask0_1_9349" style="mask-type:alpha" maskUnits="userSpaceOnUse" x="10" y="10" width="24" height="24">
<path fill-rule="evenodd" clip-rule="evenodd" d="M12 31.25C11.5858 31.25 11.25 31.5858 11.25 32C11.25 32.4142 11.5858 32.75 12 32.75H32C32.4142 32.75 32.75 32.4142 32.75 32C32.75 31.5858 32.4142 31.25 32 31.25H31H28.5H27V26C27 24.1144 27 23.1716 26.4142 22.5858C25.8284 22 24.8856 22 23 22H21C19.1144 22 18.1716 22 17.5858 22.5858C17 23.1716 17 24.1144 17 26V31.25H15.5H13H12ZM19.25 25C19.25 24.5858 19.5858 24.25 20 24.25H24C24.4142 24.25 24.75 24.5858 24.75 25C24.75 25.4142 24.4142 25.75 24 25.75H20C19.5858 25.75 19.25 25.4142 19.25 25ZM19.25 28C19.25 27.5858 19.5858 27.25 20 27.25H24C24.4142 27.25 24.75 27.5858 24.75 28C24.75 28.4142 24.4142 28.75 24 28.75H20C19.5858 28.75 19.25 28.4142 19.25 28Z" fill="black"/>
<g opacity="0.5">
<path d="M18 14.5C18.9428 14.5 19.4142 14.5 19.7071 14.7929C20 15.0858 20 15.5572 20 16.5L20 18.2924C20.1568 18.3686 20.2931 18.4647 20.4142 18.5858C20.8183 18.9899 20.9436 19.5638 20.9825 20.5V22C19.1085 22 18.1698 22.0018 17.5858 22.5858C17 23.1716 17 24.1144 17 26V31.25H13V22C13 20.1144 13 19.1716 13.5858 18.5858C13.7069 18.4647 13.8432 18.3686 14 18.2924V16.5C14 15.5572 14 15.0858 14.2929 14.7929C14.5858 14.5 15.0572 14.5 16 14.5H16.25V13C16.25 12.5858 16.5858 12.25 17 12.25C17.4142 12.25 17.75 12.5858 17.75 13V14.5H18Z" fill="black"/>
<path d="M30.6439 15.2468C30.2877 14.7328 29.66 14.4974 28.4045 14.0266C25.9493 13.1059 24.7216 12.6456 23.8608 13.2421C23 13.8386 23 15.1497 23 17.7719V22C24.8856 22 25.8284 22 26.4142 22.5858C27 23.1716 27 24.1144 27 26V31.25H31V17.7719C31 16.4311 31 15.7607 30.6439 15.2468Z" fill="black"/>
</g>
</mask>
<g mask="url(#mask0_1_9349)">
<rect x="10" y="10" width="24" height="24" fill="#9CA3AF"/>
</g>
</svg>
