<svg width="16" height="16" viewBox="0 0 16 16" fill="none" xmlns="http://www.w3.org/2000/svg">
<g clip-path="url(#clip0_72_7459)">
<mask id="mask0_72_7459" style="mask-type:alpha" maskUnits="userSpaceOnUse" x="0" y="0" width="16" height="16">
<path fill-rule="evenodd" clip-rule="evenodd" d="M5.82107 3.84722L3.77964 6.60925C2.92316 7.76806 2.49492 8.34746 2.73089 8.80304C2.73479 8.81058 2.73882 8.81807 2.74296 8.82549C2.99292 9.27412 3.73255 9.27412 5.21179 9.27412C6.03382 9.27412 6.44483 9.27412 6.70263 9.51659L6.71599 9.52942L9.29729 6.48278L9.28394 6.46995C9.03158 6.22225 9.03158 5.82735 9.03158 5.03755V4.83109C9.03158 2.64134 9.03158 1.54646 8.41601 1.35782C7.80043 1.16917 7.14064 2.06186 5.82107 3.84722Z" fill="black"/>
<path opacity="0.5" d="M6.96853 10.9625L6.96852 11.1688C6.96849 13.3586 6.96848 14.4535 7.58405 14.6421C8.19963 14.8308 8.85943 13.9381 10.179 12.1527L12.2205 9.39075C13.077 8.23194 13.5052 7.65253 13.2692 7.19696C13.2653 7.18941 13.2613 7.18192 13.2572 7.1745C13.0072 6.72587 12.2676 6.72587 10.7883 6.72587C9.9663 6.72587 9.5553 6.72587 9.29749 6.4834L6.71619 9.53004C6.96855 9.77775 6.96854 10.1727 6.96853 10.9625Z" fill="black"/>
</mask>
<g mask="url(#mask0_72_7459)">
<rect width="16" height="16" fill="white"/>
</g>
</g>
<defs>
<clipPath id="clip0_72_7459">
<path d="M0 8C0 3.58172 3.58172 0 8 0C12.4183 0 16 3.58172 16 8C16 12.4183 12.4183 16 8 16C3.58172 16 0 12.4183 0 8Z" fill="white"/>
</clipPath>
</defs>
</svg>
