<svg width="44" height="44" viewBox="0 0 44 44" fill="none" xmlns="http://www.w3.org/2000/svg">
<rect width="44" height="44" rx="12" fill="#6B7280" fill-opacity="0.08"/>
<mask id="mask0_1_9515" style="mask-type:alpha" maskUnits="userSpaceOnUse" x="10" y="10" width="24" height="24">
<path d="M32.262 11.5862C30.5939 10 27.9232 10 22.6578 10H21.3421C16.7816 10 14.1686 10 12.4671 11.0301L25.1401 16.6214C26.0668 17.0317 27.1515 16.822 27.8594 16.0957L32.265 11.5862H32.262Z" fill="black" fill-opacity="0.56"/>
<path d="M11.03 31.5356C10 29.8339 10 27.2175 10 22.6594V21.3436C10 16.0775 10 13.4034 11.586 11.7382L16.0949 16.1443C16.8211 16.8524 17.0277 17.9372 16.6206 18.864L11.03 31.5356Z" fill="black" fill-opacity="0.56"/>
<path d="M31.5329 32.9699C29.8314 34 27.2153 34 22.6578 34H21.3422C16.0767 34 13.403 34 11.7379 32.4138L16.1436 27.9043C16.8515 27.178 17.9362 26.9714 18.8629 27.3786L31.5359 32.9699H31.5329Z" fill="black" fill-opacity="0.56"/>
<path d="M32.97 12.4675C34 14.1692 34 16.7855 34 21.3436V22.6594C34 27.9255 34 30.5996 32.4139 32.2649L27.905 27.8587C27.1788 27.1507 26.9722 26.0658 27.3794 25.139L32.97 12.4644V12.4675Z" fill="black" fill-opacity="0.56"/>
</mask>
<g mask="url(#mask0_1_9515)">
<rect x="10" y="10" width="24" height="24" fill="#9CA3AF"/>
</g>
</svg>
