<svg width="262" height="262" viewBox="0 0 262 262" fill="none" xmlns="http://www.w3.org/2000/svg">
<path d="M201.85 5.374C181.921 -5.47329 156.492 1.3403 106.358 14.7737L93.8321 18.1301C50.4096 29.7651 25.5305 36.4314 11.9583 50.5805L146.886 71.4851C156.756 73.0268 166.549 68.2631 171.436 59.5421L201.879 5.36624L201.85 5.374Z" fill="white" fill-opacity="0.04"/>
<path d="M50.5892 249.485C36.4409 235.91 29.766 210.999 18.1372 167.6L14.7804 155.072C1.34532 104.932 -5.47688 79.471 5.37573 59.5696L59.5476 90.0188C68.268 94.9075 73.0028 104.709 71.4908 114.573L50.5892 249.485Z" fill="white" fill-opacity="0.04"/>
<path d="M249.462 210.834C235.89 224.983 210.982 231.657 167.588 243.284L155.062 246.64C104.928 260.074 79.4701 266.895 59.5701 256.04L90.0126 201.864C94.9003 193.143 104.701 188.409 114.563 189.921L249.491 210.826L249.462 210.834Z" fill="white" fill-opacity="0.04"/>
<path d="M210.839 11.9583C224.987 25.5328 231.662 50.4439 243.291 93.843L246.648 106.371C260.083 156.511 266.905 181.972 256.052 201.873L201.88 171.424C193.16 166.536 188.425 156.734 189.937 146.87L210.831 11.9294L210.839 11.9583Z" fill="white" fill-opacity="0.04"/>
<path d="M90.4487 202.109C95.2335 193.571 104.829 188.934 114.486 190.415L114.486 190.416L248.432 211.168C241.764 217.818 232.421 222.813 219.536 227.534C206.214 232.416 189.163 236.985 167.458 242.801L154.932 246.157C129.852 252.878 110.991 257.931 95.9117 259.953C81.0722 261.943 69.9689 260.984 60.2569 255.839L90.4487 202.109ZM211.173 12.9872C217.823 19.6568 222.819 29.001 227.54 41.888C232.422 55.2116 236.991 72.2644 242.808 93.9721L246.164 106.5C252.885 131.583 257.939 150.447 259.962 165.528C261.953 180.369 260.994 191.474 255.85 201.186L202.125 170.988C193.588 166.202 188.95 156.604 190.431 146.946L211.173 12.9872ZM59.3026 90.4542L59.3028 90.4552C67.8398 95.241 72.4769 104.837 70.9967 114.496L50.2433 248.445C43.5986 241.776 38.607 232.434 33.8882 219.554C29.0068 206.23 24.4366 189.178 18.6201 167.47L15.2633 154.942C8.54235 129.86 3.48905 110.996 1.46595 95.9152C-0.524902 81.0743 0.432932 69.9697 5.57727 60.2572L59.3026 90.4542ZM93.9619 18.6129L106.488 15.2566C131.568 8.53653 150.422 3.48555 165.497 1.46414C180.342 -0.526318 191.451 0.434829 201.181 5.58567L171.001 59.2974C166.215 67.8364 156.626 72.5009 146.963 70.9915L146.963 70.9906L12.998 50.2353C19.6653 43.5902 28.9987 38.5999 41.8735 33.8823C55.1917 29.0022 72.2423 24.4327 93.9619 18.6129Z" stroke="white" stroke-opacity="0.08"/>
</svg>
