<svg width="24" height="24" viewBox="0 0 24 24" fill="none" xmlns="http://www.w3.org/2000/svg">
<g clip-path="url(#clip0_442_112631)">
<path fill-rule="evenodd" clip-rule="evenodd" d="M12.0508 0.416016C15.1396 0.416016 18.0343 1.61395 20.2119 3.78125C22.3893 5.94844 23.5868 8.83415 23.5869 11.9023C23.5869 18.2331 18.4061 23.3838 12.0508 23.3838H12.0459C10.1147 23.3838 8.21704 22.8989 6.53223 21.9863L0.417969 23.583L2.05664 17.6348C1.04241 15.8954 0.509846 13.9163 0.509766 11.8975C0.515496 5.5668 5.68995 0.41624 12.0508 0.416016ZM7.82227 6.39844C7.6217 6.39844 7.30045 6.47299 7.02539 6.76953C6.75032 7.06611 5.98242 7.7852 5.98242 9.25098C5.9826 10.7109 7.05414 12.1256 7.20312 12.3252C7.35392 12.5278 9.2738 15.6221 12.3037 16.8135C14.8245 17.8056 15.3405 17.606 15.8848 17.5547C16.4291 17.5034 17.65 16.8364 17.9023 16.1406C18.1488 15.4448 18.1487 14.8511 18.0742 14.7256C17.9996 14.6002 17.7988 14.5261 17.501 14.3779C17.2028 14.2296 15.736 13.5109 15.4609 13.4082C15.1859 13.3113 14.9849 13.2601 14.79 13.5566C14.5894 13.8532 14.0168 14.5199 13.8447 14.7197C13.6728 14.9193 13.4953 14.9422 13.1973 14.7939C12.899 14.6456 11.936 14.3324 10.7959 13.3174C9.90767 12.5303 9.30668 11.5544 9.13477 11.2578C8.96295 10.9613 9.11666 10.8016 9.26562 10.6533C9.39739 10.5222 9.56393 10.3058 9.71289 10.1348C9.86181 9.96375 9.91342 9.83811 10.0107 9.63867C10.1082 9.43905 10.0628 9.26743 9.98828 9.11914C9.91341 8.97555 9.32894 7.5052 9.06543 6.91797C8.8421 6.42214 8.60742 6.41 8.39551 6.4043C8.22367 6.3986 8.02274 6.39844 7.82227 6.39844Z" fill="#111827"/>
</g>
<defs>
<clipPath id="clip0_442_112631">
<rect width="24" height="24" fill="white"/>
</clipPath>
</defs>
</svg>
